<mxfile host="Electron" modified="2021-03-29T14:06:48.191Z" agent="5.0 (Windows NT 10.0; Win64; x64) AppleWebKit/537.36 (KHTML, like Gecko) draw.io/14.1.8 Chrome/87.0.4280.88 Electron/11.1.1 Safari/537.36" etag="T-jz-iJVkhp9C-UHNAsj" compressed="false" version="14.1.8" type="device">
  <diagram id="PSzUQ3MnPa4Xr93_lSzB" name="Seite-1">
    <mxGraphModel dx="905" dy="569" grid="1" gridSize="10" guides="1" tooltips="1" connect="1" arrows="1" fold="1" page="1" pageScale="1" pageWidth="827" pageHeight="1169" background="#000000" math="0" shadow="0">
      <root>
        <mxCell id="0" />
        <mxCell id="1" parent="0" />
        <mxCell id="zk4efuTUrOc2vaJsBt1w-13" value="" style="rounded=0;whiteSpace=wrap;html=1;fillColor=#fff2cc;strokeColor=none;" vertex="1" parent="1">
          <mxGeometry x="130" y="170" width="430" height="140" as="geometry" />
        </mxCell>
        <mxCell id="zk4efuTUrOc2vaJsBt1w-12" value="" style="rounded=0;whiteSpace=wrap;html=1;fillColor=#d5e8d4;strokeColor=none;" vertex="1" parent="1">
          <mxGeometry x="130" y="90" width="430" height="60" as="geometry" />
        </mxCell>
        <mxCell id="zk4efuTUrOc2vaJsBt1w-1" value="" style="endArrow=classic;html=1;strokeWidth=2;strokeColor=#FFFFFF;" edge="1" parent="1">
          <mxGeometry width="50" height="50" relative="1" as="geometry">
            <mxPoint x="120" y="320" as="sourcePoint" />
            <mxPoint x="120" y="80" as="targetPoint" />
          </mxGeometry>
        </mxCell>
        <mxCell id="zk4efuTUrOc2vaJsBt1w-2" value="" style="endArrow=classic;html=1;strokeWidth=2;strokeColor=#FFFFFF;" edge="1" parent="1">
          <mxGeometry width="50" height="50" relative="1" as="geometry">
            <mxPoint x="120" y="320" as="sourcePoint" />
            <mxPoint x="560" y="320" as="targetPoint" />
          </mxGeometry>
        </mxCell>
        <mxCell id="zk4efuTUrOc2vaJsBt1w-3" value="" style="endArrow=none;dashed=1;html=1;dashPattern=1 3;strokeWidth=2;strokeColor=#FFFFFF;" edge="1" parent="1">
          <mxGeometry width="50" height="50" relative="1" as="geometry">
            <mxPoint x="120" y="80" as="sourcePoint" />
            <mxPoint x="560" y="80" as="targetPoint" />
          </mxGeometry>
        </mxCell>
        <mxCell id="zk4efuTUrOc2vaJsBt1w-5" value="" style="endArrow=none;dashed=1;html=1;dashPattern=1 3;strokeWidth=2;strokeColor=#FFFFFF;" edge="1" parent="1">
          <mxGeometry width="50" height="50" relative="1" as="geometry">
            <mxPoint x="120" y="160" as="sourcePoint" />
            <mxPoint x="560" y="160" as="targetPoint" />
          </mxGeometry>
        </mxCell>
        <mxCell id="zk4efuTUrOc2vaJsBt1w-6" value="A&lt;sub&gt;1&lt;/sub&gt;" style="ellipse;whiteSpace=wrap;html=1;" vertex="1" parent="1">
          <mxGeometry x="160" y="250" width="40" height="40" as="geometry" />
        </mxCell>
        <mxCell id="zk4efuTUrOc2vaJsBt1w-7" value="A&lt;sub&gt;2&lt;/sub&gt;" style="ellipse;whiteSpace=wrap;html=1;" vertex="1" parent="1">
          <mxGeometry x="230" y="190" width="40" height="40" as="geometry" />
        </mxCell>
        <mxCell id="zk4efuTUrOc2vaJsBt1w-8" value="A&lt;sub&gt;4&lt;/sub&gt;" style="ellipse;whiteSpace=wrap;html=1;" vertex="1" parent="1">
          <mxGeometry x="374" y="240" width="40" height="40" as="geometry" />
        </mxCell>
        <mxCell id="zk4efuTUrOc2vaJsBt1w-9" value="A&lt;sub&gt;3&lt;/sub&gt;" style="ellipse;whiteSpace=wrap;html=1;" vertex="1" parent="1">
          <mxGeometry x="290" y="70" width="40" height="40" as="geometry" />
        </mxCell>
        <mxCell id="zk4efuTUrOc2vaJsBt1w-10" value="A&lt;sub&gt;5&lt;/sub&gt;" style="ellipse;whiteSpace=wrap;html=1;" vertex="1" parent="1">
          <mxGeometry x="410" y="100" width="40" height="40" as="geometry" />
        </mxCell>
        <mxCell id="zk4efuTUrOc2vaJsBt1w-11" value="A&lt;sub&gt;6&lt;/sub&gt;" style="ellipse;whiteSpace=wrap;html=1;" vertex="1" parent="1">
          <mxGeometry x="490" y="120" width="40" height="40" as="geometry" />
        </mxCell>
        <mxCell id="zk4efuTUrOc2vaJsBt1w-14" value="" style="shape=curlyBracket;whiteSpace=wrap;html=1;rounded=1;rotation=-180;strokeColor=#FFFFFF;" vertex="1" parent="1">
          <mxGeometry x="570" y="80" width="20" height="80" as="geometry" />
        </mxCell>
        <mxCell id="zk4efuTUrOc2vaJsBt1w-15" value="" style="shape=curlyBracket;whiteSpace=wrap;html=1;rounded=1;rotation=-180;strokeColor=#FFFFFF;" vertex="1" parent="1">
          <mxGeometry x="570" y="160" width="20" height="160" as="geometry" />
        </mxCell>
        <mxCell id="zk4efuTUrOc2vaJsBt1w-16" value="Schwankungsbereich" style="text;html=1;strokeColor=none;fillColor=none;align=center;verticalAlign=middle;whiteSpace=wrap;rounded=0;fontColor=#FFFFFF;" vertex="1" parent="1">
          <mxGeometry x="600" y="110" width="130" height="20" as="geometry" />
        </mxCell>
        <mxCell id="zk4efuTUrOc2vaJsBt1w-17" value="&quot;verloren&quot;" style="text;html=1;strokeColor=none;fillColor=none;align=center;verticalAlign=middle;whiteSpace=wrap;rounded=0;fontColor=#FFFFFF;" vertex="1" parent="1">
          <mxGeometry x="600" y="230" width="70" height="20" as="geometry" />
        </mxCell>
        <mxCell id="zk4efuTUrOc2vaJsBt1w-18" value="&lt;div&gt;&lt;b&gt;Gewinner&lt;/b&gt;&lt;span&gt;:&lt;/span&gt;&lt;/div&gt;hat nicht den höchsten Wert für &lt;i&gt;z&lt;/i&gt; aber für das Kriterium &lt;i&gt;K&lt;sub&gt;n&lt;/sub&gt;&lt;/i&gt;" style="text;html=1;strokeColor=none;fillColor=none;align=left;verticalAlign=middle;whiteSpace=wrap;rounded=0;spacingLeft=5;fontColor=#FFFFFF;" vertex="1" parent="1">
          <mxGeometry x="450" y="10" width="200" height="50" as="geometry" />
        </mxCell>
        <mxCell id="zk4efuTUrOc2vaJsBt1w-19" value="z" style="text;html=1;strokeColor=none;fillColor=none;align=center;verticalAlign=middle;whiteSpace=wrap;rounded=0;fontStyle=3;fontColor=#FFFFFF;" vertex="1" parent="1">
          <mxGeometry x="80" y="80" width="40" height="40" as="geometry" />
        </mxCell>
        <mxCell id="zk4efuTUrOc2vaJsBt1w-20" value="" style="endArrow=classic;html=1;strokeWidth=1;exitX=0;exitY=0.5;exitDx=0;exitDy=0;entryX=0.5;entryY=0;entryDx=0;entryDy=0;strokeColor=#FFFFFF;" edge="1" parent="1" source="zk4efuTUrOc2vaJsBt1w-18" target="zk4efuTUrOc2vaJsBt1w-10">
          <mxGeometry width="50" height="50" relative="1" as="geometry">
            <mxPoint x="160" y="50" as="sourcePoint" />
            <mxPoint x="210" as="targetPoint" />
            <Array as="points">
              <mxPoint x="430" y="35" />
            </Array>
          </mxGeometry>
        </mxCell>
      </root>
    </mxGraphModel>
  </diagram>
</mxfile>
